<svg width="26" height="21" viewBox="0 0 26 21" fill="none" xmlns="http://www.w3.org/2000/svg">
<path id="Vector" d="M23.3275 5.76056C23.344 5.97306 23.344 6.1856 23.344 6.3981C23.344 12.8795 17.9823 20.3477 8.18277 20.3477C5.16371 20.3477 2.35915 19.5431 0 18.1467C0.428951 18.1922 0.841347 18.2074 1.2868 18.2074C3.77789 18.2074 6.07107 17.4333 7.9023 16.1127C5.55965 16.0672 3.59644 14.6555 2.92003 12.7126C3.25001 12.7581 3.57994 12.7885 3.92642 12.7885C4.40483 12.7885 4.8833 12.7277 5.3287 12.6215C2.88708 12.1661 1.0558 10.1929 1.0558 7.80974V7.74905C1.76516 8.11335 2.59011 8.34103 3.46441 8.37135C2.02913 7.49095 1.08881 5.98824 1.08881 4.28817C1.08881 3.37745 1.35272 2.5426 1.81468 1.814C4.43779 4.78909 8.38072 6.73198 12.802 6.94452C12.7195 6.58022 12.67 6.20079 12.67 5.8213C12.67 3.1194 15.0457 0.918457 17.9987 0.918457C19.533 0.918457 20.9188 1.51044 21.8921 2.46672C23.0964 2.25422 24.2512 1.84437 25.2741 1.28276C24.8781 2.42121 24.0368 3.37749 22.9315 3.98461C24.0038 3.87841 25.0432 3.60513 26 3.22569C25.2742 4.19711 24.3668 5.06228 23.3275 5.76056Z" fill="#6658EA"/>
</svg>
