<?xml version="1.0" standalone="no"?>
<!DOCTYPE svg PUBLIC "-//W3C//DTD SVG 20010904//EN"
 "http://www.w3.org/TR/2001/REC-SVG-20010904/DTD/svg10.dtd">
<svg version="1.0" xmlns="http://www.w3.org/2000/svg"
 width="800.000000pt" height="600.000000pt" viewBox="0 0 800.000000 600.000000"
 preserveAspectRatio="xMidYMid meet">

<g transform="translate(0.000000,600.000000) scale(0.100000,-0.100000)"
fill="#6658EA" stroke="none">
<path d="M3165 3860 c-409 -57 -713 -368 -755 -773 -56 -539 404 -1001 942
-946 92 9 208 38 260 65 36 19 58 63 58 115 0 33 -6 47 -33 74 -48 48 -77 52
-166 25 -102 -31 -253 -38 -342 -16 -219 55 -399 233 -454 451 -19 76 -19 214
0 290 55 216 230 393 445 450 73 20 226 19 304 -1 101 -26 193 -80 277 -164
91 -90 72 -53 380 -723 167 -363 248 -529 266 -544 49 -40 128 -36 170 9 28
31 433 1129 433 1174 0 75 -51 124 -131 124 -78 0 -87 -17 -254 -468 -81 -221
-151 -399 -156 -395 -4 4 -90 188 -191 408 -101 220 -201 426 -222 458 -156
235 -402 375 -686 391 -47 2 -112 1 -145 -4z"/>
<path d="M5425 3860 c-11 -4 -31 -19 -44 -33 -35 -38 -581 -1517 -581 -1575 0
-54 47 -110 100 -118 44 -7 103 16 123 48 8 12 142 367 297 786 297 807 292
789 253 848 -27 43 -100 64 -148 44z"/>
</g>
</svg>
