<svg width="25" height="24" viewBox="0 0 25 24" fill="none" xmlns="http://www.w3.org/2000/svg">
<path id="Vector" d="M12.0077 6.51902C8.60102 6.51902 5.85319 9.14469 5.85319 12.3999C5.85319 15.6551 8.60102 18.2808 12.0077 18.2808C15.4143 18.2808 18.1622 15.6551 18.1622 12.3999C18.1622 9.14469 15.4143 6.51902 12.0077 6.51902ZM12.0077 16.2232C9.8062 16.2232 8.00646 14.5086 8.00646 12.3999C8.00646 10.2912 9.80085 8.57656 12.0077 8.57656C14.2145 8.57656 16.0089 10.2912 16.0089 12.3999C16.0089 14.5086 14.2092 16.2232 12.0077 16.2232ZM19.8494 6.27846C19.8494 7.04108 19.2067 7.65015 18.4139 7.65015C17.6158 7.65015 16.9784 7.03596 16.9784 6.27846C16.9784 5.52096 17.6212 4.90676 18.4139 4.90676C19.2067 4.90676 19.8494 5.52096 19.8494 6.27846ZM23.9256 7.67063C23.8346 5.83317 23.3953 4.20556 21.9866 2.86458C20.5832 1.52359 18.8799 1.10389 16.957 1.01176C14.9751 0.904281 9.03488 0.904281 7.05302 1.01176C5.13543 1.09878 3.4321 1.51847 2.02337 2.85946C0.614645 4.20044 0.180778 5.82805 0.0843631 7.66551C-0.028121 9.55927 -0.028121 15.2354 0.0843631 17.1292C0.175422 18.9666 0.614645 20.5942 2.02337 21.9352C3.4321 23.2762 5.13008 23.6959 7.05302 23.788C9.03488 23.8955 14.9751 23.8955 16.957 23.788C18.8799 23.701 20.5832 23.2813 21.9866 21.9352C23.39 20.5942 23.8292 18.9666 23.9256 17.1292C24.0381 15.2354 24.0381 9.56438 23.9256 7.67063ZM21.3653 19.1611C20.9475 20.1643 20.1387 20.9372 19.0835 21.3415C17.5033 21.9403 13.7539 21.8022 12.0077 21.8022C10.2615 21.8022 6.50667 21.9352 4.93189 21.3415C3.88204 20.9423 3.07323 20.1694 2.65007 19.1611C2.02337 17.6512 2.168 14.0685 2.168 12.3999C2.168 10.7313 2.02873 7.14345 2.65007 5.63868C3.06787 4.6355 3.87668 3.86264 4.93189 3.45829C6.51202 2.85946 10.2615 2.99765 12.0077 2.99765C13.7539 2.99765 17.5087 2.86458 19.0835 3.45829C20.1333 3.85752 20.9421 4.63038 21.3653 5.63868C21.992 7.14856 21.8474 10.7313 21.8474 12.3999C21.8474 14.0685 21.992 17.6564 21.3653 19.1611Z" fill="#6658EA"/>
</svg>
